<svg width="100" height="101" viewBox="0 0 100 101" fill="none" xmlns="http://www.w3.org/2000/svg">
<g clip-path="url(#clip0_202_699)">
<path d="M86.9216 5.69238H13.0754C11.2393 5.69238 9.47839 6.42178 8.18007 7.72011C6.88174 9.01843 6.15234 10.7793 6.15234 12.6155V86.4616C6.15234 88.2977 6.88174 90.0586 8.18007 91.357C9.47839 92.6553 11.2393 93.3847 13.0754 93.3847H86.9216C88.7577 93.3847 90.5186 92.6553 91.8169 91.357C93.1153 90.0586 93.8447 88.2977 93.8447 86.4616V12.6155C93.8447 10.7793 93.1153 9.01843 91.8169 7.72011C90.5186 6.42178 88.7577 5.69238 86.9216 5.69238ZM80.6908 15.6155C81.1222 15.1926 81.7021 14.9558 82.3062 14.9558C82.9102 14.9558 83.4902 15.1926 83.9216 15.6155C84.2489 15.9363 84.4733 16.3474 84.5661 16.7963C84.6589 17.2452 84.6159 17.7116 84.4426 18.1359C84.2693 18.5603 83.9736 18.9234 83.5931 19.179C83.2126 19.4347 82.7646 19.5712 82.3062 19.5712C81.8478 19.5712 81.3998 19.4347 81.0193 19.179C80.6388 18.9234 80.3431 18.5603 80.1698 18.1359C79.9965 17.7116 79.9535 17.2452 80.0463 16.7963C80.1391 16.3474 80.3634 15.9363 80.6908 15.6155ZM71.46 15.6155C71.8914 15.1926 72.4714 14.9558 73.0754 14.9558C73.6795 14.9558 74.2594 15.1926 74.6908 15.6155C74.9098 15.8237 75.0841 16.0743 75.2032 16.352C75.3224 16.6297 75.3838 16.9287 75.3838 17.2308C75.3838 17.533 75.3224 17.832 75.2032 18.1097C75.0841 18.3874 74.9098 18.638 74.6908 18.8462C74.4966 19.0808 74.2409 19.2566 73.9523 19.3539C73.6778 19.481 73.3779 19.5442 73.0754 19.5385C72.6237 19.5322 72.1839 19.3934 71.8103 19.1394C71.4368 18.8855 71.146 18.5274 70.974 18.1097C70.802 17.692 70.7563 17.233 70.8428 16.7897C70.9292 16.3463 71.1438 15.938 71.46 15.6155ZM62.2293 15.6155C62.4235 15.3809 62.6792 15.2051 62.9677 15.1078C63.3872 14.9389 63.847 14.897 64.2901 14.9873C64.7332 15.0775 65.14 15.296 65.46 15.6155C65.682 15.8213 65.8583 16.0715 65.9775 16.3497C66.0968 16.628 66.1563 16.9281 66.1523 17.2308C66.1626 17.5338 66.0993 17.8347 65.9677 18.1078C65.8704 18.3963 65.6946 18.652 65.46 18.8462C65.2518 19.0652 65.0012 19.2395 64.7235 19.3587C64.4458 19.4778 64.1468 19.5392 63.8447 19.5392C63.5425 19.5392 63.2435 19.4778 62.9658 19.3587C62.6881 19.2395 62.4375 19.0652 62.2293 18.8462C61.9947 18.652 61.8189 18.3963 61.7216 18.1078C61.59 17.8347 61.5267 17.5338 61.537 17.2308C61.533 16.9281 61.5925 16.628 61.7118 16.3497C61.831 16.0715 62.0073 15.8213 62.2293 15.6155ZM89.2293 86.4616C89.2293 87.0737 88.9861 87.6606 88.5534 88.0934C88.1206 88.5262 87.5336 88.7693 86.9216 88.7693H13.0754C12.4634 88.7693 11.8764 88.5262 11.4436 88.0934C11.0109 87.6606 10.7677 87.0737 10.7677 86.4616V28.7693H89.2293V86.4616ZM47.6908 70.3078H52.3062C54.1423 70.3078 55.9032 69.5784 57.2015 68.28C58.4999 66.9817 59.2293 65.2208 59.2293 63.3847V44.9232C59.2293 43.087 58.4999 41.3261 57.2015 40.0278C55.9032 38.7295 54.1423 38.0001 52.3062 38.0001H47.6908C45.8547 38.0001 44.0938 38.7295 42.7954 40.0278C41.4971 41.3261 40.7677 43.087 40.7677 44.9232V63.3847C40.7677 65.2208 41.4971 66.9817 42.7954 68.28C44.0938 69.5784 45.8547 70.3078 47.6908 70.3078ZM45.3831 44.9232C45.3831 44.3111 45.6262 43.7241 46.059 43.2914C46.4918 42.8586 47.0788 42.6155 47.6908 42.6155H52.3062C52.9182 42.6155 53.5052 42.8586 53.938 43.2914C54.3708 43.7241 54.6139 44.3111 54.6139 44.9232V63.3847C54.6139 63.9967 54.3708 64.5837 53.938 65.0165C53.5052 65.4493 52.9182 65.6924 52.3062 65.6924H47.6908C47.0788 65.6924 46.4918 65.4493 46.059 65.0165C45.6262 64.5837 45.3831 63.9967 45.3831 63.3847V44.9232ZM18.1523 60.1908C17.9365 59.9144 17.7865 59.5924 17.7137 59.2493C17.6409 58.9063 17.6473 58.5511 17.7323 58.2108L22.3477 39.7493C22.4958 39.155 22.874 38.6439 23.3989 38.3284C23.9239 38.0129 24.5527 37.9189 25.147 38.067C25.7412 38.2151 26.2524 38.5932 26.5679 39.1182C26.8833 39.6432 26.9774 40.2719 26.8293 40.8662L22.9247 56.4616H31.5047V40.3078C31.5047 39.6957 31.7478 39.1088 32.1806 38.676C32.6133 38.2432 33.2003 38.0001 33.8123 38.0001C34.4244 38.0001 35.0114 38.2432 35.4441 38.676C35.8769 39.1088 36.12 39.6957 36.12 40.3078V68.0001C36.12 68.6121 35.8769 69.1991 35.4441 69.6319C35.0114 70.0646 34.4244 70.3078 33.8123 70.3078C33.2003 70.3078 32.6133 70.0646 32.1806 69.6319C31.7478 69.1991 31.5047 68.6121 31.5047 68.0001V61.077H19.9662C19.6165 61.0764 19.2715 60.9963 18.9572 60.8428C18.643 60.6893 18.3678 60.4663 18.1523 60.1908ZM64.3339 60.1908C64.1188 59.914 63.9696 59.5919 63.8977 59.2488C63.8257 58.9057 63.8328 58.5508 63.9185 58.2108L68.5339 39.7493C68.6933 39.168 69.0738 38.6721 69.5941 38.3677C70.1144 38.0634 70.7332 37.9746 71.318 38.1205C71.9029 38.2665 72.4074 38.6354 72.7238 39.1485C73.0401 39.6616 73.1431 40.2781 73.0108 40.8662L69.1108 56.4616H77.6908V40.3078C77.6908 39.6957 77.9339 39.1088 78.3667 38.676C78.7995 38.2432 79.3865 38.0001 79.9985 38.0001C80.6105 38.0001 81.1975 38.2432 81.6303 38.676C82.0631 39.1088 82.3062 39.6957 82.3062 40.3078V68.0001C82.3062 68.6121 82.0631 69.1991 81.6303 69.6319C81.1975 70.0646 80.6105 70.3078 79.9985 70.3078C79.3865 70.3078 78.7995 70.0646 78.3667 69.6319C77.9339 69.1991 77.6908 68.6121 77.6908 68.0001V61.077H66.1523C65.8011 61.0778 65.4542 60.9984 65.1383 60.8448C64.8224 60.6912 64.5457 60.4676 64.3293 60.1908H64.3339ZM59.2293 74.9231C59.8413 74.9231 60.4283 75.1663 60.8611 75.5991C61.2938 76.0318 61.537 76.6188 61.537 77.2308C61.537 77.8429 61.2938 78.4299 60.8611 78.8626C60.4283 79.2954 59.8413 79.5385 59.2293 79.5385H54.6139C54.0018 79.5385 53.4149 79.2954 52.9821 78.8626C52.5493 78.4299 52.3062 77.8429 52.3062 77.2308C52.3062 76.6188 52.5493 76.0318 52.9821 75.5991C53.4149 75.1663 54.0018 74.9231 54.6139 74.9231H59.2293ZM38.46 77.2308C38.46 76.6188 38.7032 76.0318 39.1359 75.5991C39.5687 75.1663 40.1557 74.9231 40.7677 74.9231H45.3831C45.9952 74.9231 46.5821 75.1663 47.0149 75.5991C47.4477 76.0318 47.6908 76.6188 47.6908 77.2308C47.6908 77.8429 47.4477 78.4299 47.0149 78.8626C46.5821 79.2954 45.9952 79.5385 45.3831 79.5385H40.7677C40.1557 79.5385 39.5687 79.2954 39.1359 78.8626C38.7032 78.4299 38.46 77.8429 38.46 77.2308ZM33.8447 77.2308C33.8447 77.8429 33.6015 78.4299 33.1687 78.8626C32.736 79.2954 32.149 79.5385 31.537 79.5385H26.9216C26.3095 79.5385 25.7226 79.2954 25.2898 78.8626C24.857 78.4299 24.6139 77.8429 24.6139 77.2308C24.6139 76.6188 24.857 76.0318 25.2898 75.5991C25.7226 75.1663 26.3095 74.9231 26.9216 74.9231H31.537C32.149 74.9231 32.736 75.1663 33.1687 75.5991C33.6015 76.0318 33.8447 76.6188 33.8447 77.2308ZM75.3831 77.2308C75.3831 77.8429 75.14 78.4299 74.7072 78.8626C74.2744 79.2954 73.6875 79.5385 73.0754 79.5385H68.46C67.848 79.5385 67.261 79.2954 66.8282 78.8626C66.3955 78.4299 66.1523 77.8429 66.1523 77.2308C66.1523 76.6188 66.3955 76.0318 66.8282 75.5991C67.261 75.1663 67.848 74.9231 68.46 74.9231H73.0754C73.6875 74.9231 74.2744 75.1663 74.7072 75.5991C75.14 76.0318 75.3831 76.6188 75.3831 77.2308Z" fill="#030303"/>
</g>
<defs>
<clipPath id="clip0_202_699">
<rect width="100" height="100" fill="white" transform="translate(0 0.5)"/>
</clipPath>
</defs>
</svg>
