<svg width="19" height="19" viewBox="0 0 19 19" fill="none" xmlns="http://www.w3.org/2000/svg">
<g clip-path="url(#clip0_39_84)">
<path d="M5.21338 2.28674L2.96338 5.28674V15.7867C2.96338 16.1846 3.12141 16.5661 3.40272 16.8474C3.68402 17.1287 4.06555 17.2867 4.46338 17.2867H14.9634C15.3612 17.2867 15.7427 17.1287 16.024 16.8474C16.3053 16.5661 16.4634 16.1846 16.4634 15.7867V5.28674L14.2134 2.28674H5.21338Z" stroke="#4C4C4C" stroke-width="1.5" stroke-linecap="round" stroke-linejoin="round"/>
<path d="M2.96338 5.28674H16.4634" stroke="#4C4C4C" stroke-width="1.5" stroke-linecap="round" stroke-linejoin="round"/>
<path d="M12.7134 8.28674C12.7134 9.08239 12.3973 9.84545 11.8347 10.4081C11.2721 10.9707 10.509 11.2867 9.71338 11.2867C8.91773 11.2867 8.15467 10.9707 7.59206 10.4081C7.02945 9.84545 6.71338 9.08239 6.71338 8.28674" stroke="#4C4C4C" stroke-width="1.5" stroke-linecap="round" stroke-linejoin="round"/>
</g>
<defs>
<clipPath id="clip0_39_84">
<rect width="18" height="18" fill="white" transform="translate(0.713379 0.786743)"/>
</clipPath>
</defs>
</svg>
