<svg width="266" height="143" viewBox="0 0 266 143" fill="none" xmlns="http://www.w3.org/2000/svg">
<path d="M194.748 117.976C188.666 110.496 180.185 107.621 174.705 106.258C176.332 111.867 175.311 116.083 175.311 116.083C175.014 112.477 173.487 109.365 171.503 106.78C169.484 104.148 166.891 102.023 164.001 100.401C158.334 97.2135 149.347 94.0261 137.82 96.033C145.588 103.596 147.492 111.487 147.492 111.487C143.136 105.656 138.143 101.863 133.604 99.3956C126.54 95.557 118.261 94.742 110.572 97.0917C105.401 98.6721 101.482 101.056 99.0219 102.861C107.891 107.724 111.486 114.43 111.486 114.43C110.027 113.322 108.599 112.351 107.202 111.498C98.4126 106.136 87.2813 106.197 78.7434 111.951C76.4013 113.532 74.124 115.5 72.1095 117.976C62.7604 129.469 69.4095 139.956 89.848 136.872C110.286 133.787 133.425 133.787 133.425 133.787C133.425 133.787 156.563 133.787 177.002 136.872C197.448 139.956 204.097 129.469 194.748 117.976Z" fill="#EEEEEE"/>
<path d="M129.522 56.1248C129.522 56.1248 113.977 48.7598 119.095 32.3657C123.623 17.8679 131.095 10.3049 118.973 0C118.973 0 131.247 2.84851 132.336 15.0309C133.361 26.4211 116.989 40.1381 129.522 56.1248Z" fill="#EEEEEE"/>
<path d="M146.46 51.0057C146.46 51.0057 133.749 44.9849 137.938 31.5802C141.639 19.7253 147.748 13.5409 137.839 5.11719C137.839 5.11719 147.873 7.44779 148.764 17.4062C149.598 26.721 136.213 37.936 146.46 51.0057Z" fill="#EEEEEE"/>
<path d="M106.141 16.8262C105.67 22.249 105.316 27.554 105.08 32.741C104.963 37.8102 104.904 41.7005 104.904 44.4119C104.904 47.1233 104.963 49.6579 105.08 52.0157C105.198 54.3734 105.316 56.4365 105.434 58.2048H101.367C99.7166 48.7738 97.7125 41.4058 95.3547 36.1008C92.997 30.678 89.8729 26.7877 85.9826 24.4299C82.2102 22.0722 77.2 20.8933 70.9519 20.8933H65.2933V121.687C65.2933 126.521 65.7059 130.116 66.5311 132.474C67.4742 134.832 69.3015 136.423 72.0129 137.249C74.7243 137.956 78.6736 138.369 83.8606 138.486V142.023C80.324 141.787 75.7264 141.669 70.0678 141.669C64.4092 141.551 58.6327 141.493 52.7383 141.493C46.6081 141.493 40.8316 141.551 35.4088 141.669C30.1038 141.669 25.8009 141.787 22.5 142.023V138.486C27.5692 138.369 31.4595 137.956 34.1709 137.249C36.8824 136.423 38.7096 134.832 39.6527 132.474C40.5958 130.116 41.0674 126.521 41.0674 121.687V20.8933H35.2319C29.1018 20.8933 24.0915 22.0722 20.2012 24.4299C16.3109 26.7877 13.1869 30.678 10.8291 36.1008C8.47139 41.4058 6.52624 48.7738 4.99369 58.2048H0.926565C1.16234 56.4365 1.28023 54.3734 1.28023 52.0157C1.39812 49.6579 1.45706 47.1233 1.45706 44.4119C1.45706 41.7005 1.33917 37.8102 1.1034 32.741C0.985509 27.554 0.69079 22.249 0.219238 16.8262C5.4063 16.9441 11.1239 17.0619 17.3719 17.1798C23.62 17.2977 29.868 17.3567 36.1161 17.3567C42.3641 17.3567 48.0817 17.3567 53.2688 17.3567C58.3379 17.3567 63.9966 17.3567 70.2446 17.3567C76.4927 17.3567 82.7407 17.2977 88.9888 17.1798C95.2368 17.0619 100.954 16.9441 106.141 16.8262Z" fill="#EEEEEE"/>
<path d="M265.78 16.8262C265.309 22.249 264.955 27.554 264.719 32.741C264.602 37.8102 264.543 41.7005 264.543 44.4119C264.543 47.1233 264.602 49.6579 264.719 52.0157C264.837 54.3734 264.955 56.4365 265.073 58.2048H261.006C259.356 48.7738 257.351 41.4058 254.994 36.1008C252.636 30.678 249.512 26.7877 245.622 24.4299C241.849 22.0722 236.839 20.8933 230.591 20.8933H224.932V121.687C224.932 126.521 225.345 130.116 226.17 132.474C227.113 134.832 228.94 136.423 231.652 137.249C234.363 137.956 238.313 138.369 243.5 138.486V142.023C239.963 141.787 235.365 141.669 229.707 141.669C224.048 141.551 218.272 141.493 212.377 141.493C206.247 141.493 200.471 141.551 195.048 141.669C189.743 141.669 185.44 141.787 182.139 142.023V138.486C187.208 138.369 191.098 137.956 193.81 137.249C196.521 136.423 198.349 134.832 199.292 132.474C200.235 130.116 200.706 126.521 200.706 121.687V20.8933H194.871C188.741 20.8933 183.73 22.0722 179.84 24.4299C175.95 26.7877 172.826 30.678 170.468 36.1008C168.11 41.4058 166.165 48.7738 164.633 58.2048H160.566C160.801 56.4365 160.919 54.3734 160.919 52.0157C161.037 49.6579 161.096 47.1233 161.096 44.4119C161.096 41.7005 160.978 37.8102 160.742 32.741C160.624 27.554 160.33 22.249 159.858 16.8262C165.045 16.9441 170.763 17.0619 177.011 17.1798C183.259 17.2977 189.507 17.3567 195.755 17.3567C202.003 17.3567 207.721 17.3567 212.908 17.3567C217.977 17.3567 223.636 17.3567 229.884 17.3567C236.132 17.3567 242.38 17.2977 248.628 17.1798C254.876 17.0619 260.593 16.9441 265.78 16.8262Z" fill="#EEEEEE"/>
</svg>
