<svg width="30" height="31" viewBox="0 0 30 31" fill="none" xmlns="http://www.w3.org/2000/svg">
<path d="M21.25 2.52344H8.75C5.29822 2.52344 2.5 5.32166 2.5 8.77344V21.2734C2.5 24.7252 5.29822 27.5234 8.75 27.5234H21.25C24.7018 27.5234 27.5 24.7252 27.5 21.2734V8.77344C27.5 5.32166 24.7018 2.52344 21.25 2.52344Z" fill="#EEEEEE"/>
<path d="M19.9996 14.2363C20.1539 15.2766 19.9762 16.3391 19.4918 17.2726C19.0075 18.2061 18.2411 18.9631 17.3017 19.4359C16.3623 19.9087 15.2977 20.0733 14.2594 19.9062C13.221 19.7391 12.2618 19.2489 11.5182 18.5053C10.7745 17.7616 10.2843 16.8024 10.1172 15.7641C9.95014 14.7258 10.1147 13.6612 10.5875 12.7218C11.0604 11.7824 11.8174 11.016 12.7509 10.5316C13.6844 10.0472 14.7468 9.86955 15.7871 10.0238C16.8483 10.1812 17.8307 10.6756 18.5893 11.4342C19.3478 12.1928 19.8423 13.1752 19.9996 14.2363Z" stroke="#222222" stroke-width="2" stroke-linecap="round" stroke-linejoin="round"/>
<path d="M21.875 8.14844H21.8875" stroke="#222222" stroke-width="2" stroke-linecap="round" stroke-linejoin="round"/>
</svg>
