<svg width="30" height="30" viewBox="0 0 30 30" fill="none" xmlns="http://www.w3.org/2000/svg">
<path d="M21.5703 2.5H9.07031C5.61853 2.5 2.82031 5.29822 2.82031 8.75V21.25C2.82031 24.7018 5.61853 27.5 9.07031 27.5H21.5703C25.0221 27.5 27.8203 24.7018 27.8203 21.25V8.75C27.8203 5.29822 25.0221 2.5 21.5703 2.5Z" fill="#030303"/>
<path d="M20.3209 14.2129C20.4752 15.2532 20.2975 16.3156 19.8131 17.2491C19.3287 18.1826 18.5624 18.9396 17.623 19.4125C16.6836 19.8853 15.619 20.0499 14.5807 19.8828C13.5423 19.7157 12.5831 19.2255 11.8395 18.4818C11.0958 17.7382 10.6056 16.779 10.4385 15.7406C10.2714 14.7023 10.436 13.6377 10.9088 12.6983C11.3817 11.7589 12.1387 10.9926 13.0722 10.5082C14.0057 10.0238 15.0681 9.84611 16.1084 10.0004C17.1696 10.1577 18.152 10.6522 18.9105 11.4108C19.6691 12.1693 20.1636 13.1517 20.3209 14.2129Z" stroke="#FBF8F1" stroke-width="2" stroke-linecap="round" stroke-linejoin="round"/>
<path d="M22.1953 8.125H22.2078" stroke="#222222" stroke-width="2" stroke-linecap="round" stroke-linejoin="round"/>
</svg>
