<svg width="30" height="31" viewBox="0 0 30 31" fill="none" xmlns="http://www.w3.org/2000/svg">
<path d="M20 10.0234C21.9891 10.0234 23.8968 10.8136 25.3033 12.2201C26.7098 13.6267 27.5 15.5343 27.5 17.5234V26.2734H22.5V17.5234C22.5 16.8604 22.2366 16.2245 21.7678 15.7557C21.2989 15.2868 20.663 15.0234 20 15.0234C19.337 15.0234 18.7011 15.2868 18.2322 15.7557C17.7634 16.2245 17.5 16.8604 17.5 17.5234V26.2734H12.5V17.5234C12.5 15.5343 13.2902 13.6267 14.6967 12.2201C16.1032 10.8136 18.0109 10.0234 20 10.0234Z" fill="#EEEEEE"/>
<path d="M7.5 11.2734H2.5V26.2734H7.5V11.2734Z" fill="#EEEEEE"/>
<path d="M5 10.0234C6.38071 10.0234 7.5 8.90415 7.5 7.52344C7.5 6.14273 6.38071 5.02344 5 5.02344C3.61929 5.02344 2.5 6.14273 2.5 7.52344C2.5 8.90415 3.61929 10.0234 5 10.0234Z" fill="#EEEEEE"/>
</svg>
