<svg width="30" height="30" viewBox="0 0 30 30" fill="none" xmlns="http://www.w3.org/2000/svg">
<path d="M20.3203 10C22.3094 10 24.2171 10.7902 25.6236 12.1967C27.0301 13.6032 27.8203 15.5109 27.8203 17.5V26.25H22.8203V17.5C22.8203 16.837 22.5569 16.2011 22.0881 15.7322C21.6192 15.2634 20.9834 15 20.3203 15C19.6573 15 19.0214 15.2634 18.5525 15.7322C18.0837 16.2011 17.8203 16.837 17.8203 17.5V26.25H12.8203V17.5C12.8203 15.5109 13.6105 13.6032 15.017 12.1967C16.4235 10.7902 18.3312 10 20.3203 10Z" fill="#030303"/>
<path d="M7.82031 11.25H2.82031V26.25H7.82031V11.25Z" fill="#030303"/>
<path d="M5.32031 10C6.70102 10 7.82031 8.88071 7.82031 7.5C7.82031 6.11929 6.70102 5 5.32031 5C3.9396 5 2.82031 6.11929 2.82031 7.5C2.82031 8.88071 3.9396 10 5.32031 10Z" fill="#030303"/>
</svg>
