<svg width="78" height="57" viewBox="0 0 78 57" fill="none" xmlns="http://www.w3.org/2000/svg">
<path d="M56.2563 42.0434C54.5397 39.9323 52.1459 39.1208 50.5992 38.7359C51.0582 40.3193 50.7701 41.5092 50.7701 41.5092C50.6862 40.4913 50.2552 39.6131 49.6952 38.8832C49.1255 38.1405 48.3935 37.5407 47.5776 37.0828C45.9782 36.1831 43.4414 35.2834 40.1877 35.8499C42.3805 37.9846 42.918 40.2118 42.918 40.2118C41.6883 38.5661 40.2791 37.4955 38.9978 36.799C37.0039 35.7155 34.6671 35.4855 32.4968 36.1487C31.0371 36.5948 29.9311 37.2676 29.2367 37.7771C31.7401 39.1498 32.7548 41.0427 32.7548 41.0427C32.3431 40.7299 31.9401 40.4558 31.5456 40.215C29.0647 38.7016 25.9228 38.7188 23.5129 40.3429C22.8518 40.789 22.209 41.3447 21.6404 42.0434C19.0015 45.2874 20.8783 48.2477 26.6473 47.377C32.4162 46.5064 38.9473 46.5064 38.9473 46.5064C38.9473 46.5064 45.4784 46.5064 51.2473 47.377C57.0184 48.2477 58.8952 45.2874 56.2563 42.0434Z" fill="#030303"/>
<path d="M37.8453 24.5853C37.8453 24.5853 33.4576 22.5065 34.9022 17.8791C36.1803 13.7869 38.2892 11.6522 34.8678 8.74353C34.8678 8.74353 38.3322 9.54755 38.6396 12.9861C38.9288 16.2012 34.3078 20.0729 37.8453 24.5853Z" fill="#030303"/>
<path d="M42.6266 23.1406C42.6266 23.1406 39.0386 21.4412 40.221 17.6576C41.2658 14.3114 42.9899 12.5658 40.193 10.1881C40.193 10.1881 43.0254 10.8459 43.2769 13.6568C43.5123 16.286 39.7341 19.4516 42.6266 23.1406Z" fill="#030303"/>
<path d="M31.4353 13.6619C31.3022 15.1926 31.2024 16.6899 31.1358 18.154C31.1026 19.5849 31.0859 20.6829 31.0859 21.4483C31.0859 22.2136 31.1026 22.929 31.1358 23.5945C31.1691 24.26 31.2024 24.8423 31.2357 25.3414H30.0877C29.6218 22.6794 29.0562 20.5998 28.3907 19.1024C27.7252 17.5717 26.8434 16.4736 25.7453 15.8081C24.6805 15.1426 23.2663 14.8099 21.5027 14.8099H19.9055V43.2601C19.9055 44.6243 20.022 45.6392 20.2549 46.3047C20.5211 46.9702 21.0369 47.4194 21.8022 47.6524C22.5675 47.852 23.6822 47.9685 25.1463 48.0017V49C24.1481 48.9334 22.8504 48.9002 21.2532 48.9002C19.656 48.8669 18.0255 48.8503 16.3617 48.8503C14.6314 48.8503 13.0009 48.8669 11.4703 48.9002C9.97292 48.9002 8.75838 48.9334 7.82668 49V48.0017C9.25751 47.9685 10.3556 47.852 11.1209 47.6524C11.8862 47.4194 12.402 46.9702 12.6682 46.3047C12.9344 45.6392 13.0675 44.6243 13.0675 43.2601V14.8099H11.4204C9.69008 14.8099 8.27589 15.1426 7.17781 15.8081C6.07974 16.4736 5.19795 17.5717 4.53245 19.1024C3.86695 20.5998 3.31791 22.6794 2.88533 25.3414H1.73735C1.8039 24.8423 1.83717 24.26 1.83717 23.5945C1.87045 22.929 1.88708 22.2136 1.88708 21.4483C1.88708 20.6829 1.85381 19.5849 1.78726 18.154C1.75398 16.6899 1.6708 15.1926 1.5377 13.6619C3.0018 13.6952 4.61564 13.7285 6.37921 13.7617C8.14279 13.795 9.90637 13.8116 11.6699 13.8116C13.4335 13.8116 15.0474 13.8116 16.5115 13.8116C17.9423 13.8116 19.5395 13.8116 21.3031 13.8116C23.0666 13.8116 24.8302 13.795 26.5938 13.7617C28.3574 13.7285 29.9712 13.6952 31.4353 13.6619ZM76.4951 13.6619C76.362 15.1926 76.2621 16.6899 76.1956 18.154C76.1623 19.5849 76.1457 20.6829 76.1457 21.4483C76.1457 22.2136 76.1623 22.929 76.1956 23.5945C76.2289 24.26 76.2621 24.8423 76.2954 25.3414H75.1474C74.6816 22.6794 74.1159 20.5998 73.4504 19.1024C72.7849 17.5717 71.9031 16.4736 70.805 15.8081C69.7402 15.1426 68.326 14.8099 66.5625 14.8099H64.9653V43.2601C64.9653 44.6243 65.0817 45.6392 65.3146 46.3047C65.5808 46.9702 66.0966 47.4194 66.8619 47.6524C67.6273 47.852 68.742 47.9685 70.2061 48.0017V49C69.2078 48.9334 67.9101 48.9002 66.3129 48.9002C64.7157 48.8669 63.0852 48.8503 61.4215 48.8503C59.6912 48.8503 58.0607 48.8669 56.53 48.9002C55.0327 48.9002 53.8181 48.9334 52.8864 49V48.0017C54.3172 47.9685 55.4153 47.852 56.1806 47.6524C56.946 47.4194 57.4617 46.9702 57.7279 46.3047C57.9941 45.6392 58.1272 44.6243 58.1272 43.2601V14.8099H56.4801C54.7498 14.8099 53.3356 15.1426 52.2375 15.8081C51.1395 16.4736 50.2577 17.5717 49.5922 19.1024C48.9267 20.5998 48.3776 22.6794 47.9451 25.3414H46.7971C46.8636 24.8423 46.8969 24.26 46.8969 23.5945C46.9302 22.929 46.9468 22.2136 46.9468 21.4483C46.9468 20.6829 46.9135 19.5849 46.847 18.154C46.8137 16.6899 46.7305 15.1926 46.5974 13.6619C48.0615 13.6952 49.6754 13.7285 51.4389 13.7617C53.2025 13.795 54.9661 13.8116 56.7297 13.8116C58.4933 13.8116 60.1071 13.8116 61.5712 13.8116C63.002 13.8116 64.5992 13.8116 66.3628 13.8116C68.1264 13.8116 69.89 13.795 71.6535 13.7617C73.4171 13.7285 75.031 13.6952 76.4951 13.6619Z" fill="#030303"/>
</svg>
