<svg width="28" height="28" viewBox="0 0 28 28" fill="none" xmlns="http://www.w3.org/2000/svg">
<path d="M9.02563 0.259061C9.78552 0.0299518 10.601 0.0680147 11.3362 0.366913C12.0714 0.665812 12.6821 1.20751 13.0666 1.90185L13.1951 2.16059L14.3447 4.71507C14.6929 5.49055 14.8058 6.3512 14.6694 7.19026C14.5329 8.02931 14.1531 8.80984 13.5772 9.43503L13.3462 9.66426L11.535 11.3539C11.2085 11.663 11.4533 12.8595 12.6342 14.9052C13.697 16.7459 14.5618 17.6055 14.9872 17.6524H15.0619L15.1539 17.6351L18.7139 16.5462C19.1923 16.3995 19.7029 16.3937 20.1846 16.5295C20.6662 16.6653 21.0986 16.937 21.4299 17.3121L21.5879 17.5118L23.9444 20.7765C24.4062 21.4164 24.6364 22.1945 24.5969 22.9827C24.5575 23.7709 24.2508 24.5221 23.7273 25.1127L23.5155 25.3315L22.5743 26.2241C21.7291 27.0245 20.6718 27.5654 19.5282 27.7824C18.3845 27.9994 17.2026 27.8835 16.1229 27.4484C12.7627 26.0938 9.70984 22.9993 6.93656 18.196C4.15806 13.3805 3.00325 9.18323 3.51901 5.58856C3.67508 4.50194 4.12253 3.47787 4.81385 2.62511C5.50516 1.77236 6.41453 1.12276 7.44537 0.745298L7.78052 0.634158L9.02563 0.259061Z" fill="url(#paint0_linear_43_142)"/>
<defs>
<linearGradient id="paint0_linear_43_142" x1="14.0003" y1="0.111206" x2="14.0003" y2="27.889" gradientUnits="userSpaceOnUse">
<stop stop-color="white"/>
<stop offset="1" stop-color="white" stop-opacity="0.9"/>
</linearGradient>
</defs>
</svg>
